<svg width="50" height="50" viewBox="0 0 50 50" fill="none" xmlns="http://www.w3.org/2000/svg">
<path d="M24.922 49.0551C18.266 49.0551 12.006 46.5047 7.301 41.8694C2.592 37.2396 0 31.0818 0 24.5323C0 17.9828 2.5918 11.823 7.297 7.19328C14.34 0.26298 24.873 -1.87427 34.133 1.74488L33.299 3.80897C24.879 0.516802 15.303 2.46364 8.893 8.76537C4.6137 12.9762 2.258 18.5749 2.258 24.5325C2.258 30.4901 4.61345 36.0886 8.893 40.2996C13.1726 44.5106 18.862 46.8284 24.9165 46.8284C30.971 46.8284 36.6605 44.5107 40.94 40.2996C47.36 33.9823 49.3325 24.5384 45.9615 16.2418L48.0592 15.4173C51.7643 24.5385 49.5963 34.9241 42.5377 41.8721C37.8326 46.5019 31.5746 49.0578 24.9167 49.0578L24.922 49.0551Z" fill="white"/>
<path d="M24.9219 40.5952C20.5606 40.5952 16.4649 38.9232 13.3829 35.8924C7.02144 29.6273 7.02144 19.4429 13.3829 13.1778C17.7872 8.84397 24.4319 7.35252 30.3144 9.36864L29.5722 11.4692C24.5017 9.72799 18.7752 11.0137 14.9842 14.7499C9.49974 20.1466 9.49974 28.9239 14.9842 34.3201C17.6405 36.9339 21.1737 38.3734 24.9257 38.3734C28.6796 38.3734 32.2107 36.9339 34.8672 34.3201C38.6641 30.584 39.9707 24.949 38.2012 19.9656L40.3301 19.2352C42.3848 25.0241 40.8633 31.5623 36.459 35.8958C33.3789 38.9266 29.2755 40.5986 24.92 40.5986L24.9219 40.5952Z" fill="white"/>
<path d="M24.922 32.1352C22.8575 32.1352 20.922 31.3472 19.459 29.9078C16.4473 26.9443 16.4473 22.1244 19.459 19.1625C20.6094 18.0305 22.0566 17.3002 23.6582 17.0408L24.0234 19.2317C22.8945 19.4162 21.8672 19.9351 21.0547 20.7346C18.9258 22.8294 18.9258 26.2425 21.0547 28.3375C22.0879 29.3541 23.459 29.9134 24.9199 29.9134C26.3828 29.9134 27.7539 29.3522 28.7852 28.3375C29.5977 27.538 30.1289 26.5271 30.3125 25.4162L32.5391 25.7756C32.2754 27.3477 31.5274 28.7814 30.377 29.9076C28.9199 31.3414 26.9785 32.1351 24.914 32.1351L24.922 32.1352Z" fill="white"/>
<path d="M25.719 25.3201L24.1213 23.748L35.2563 12.7912L34.0844 8.74947C33.9712 8.36318 34.0844 7.94614 34.3696 7.65979L41.8266 0.326052C42.1 0.0569872 42.4985 -0.0602464 42.8813 0.0300847C43.2622 0.114645 43.5688 0.389475 43.6938 0.748847L45.0766 4.71751L49.2543 6.20886C49.6137 6.34147 49.8891 6.6432 49.9692 7.0122C50.0551 7.38312 49.936 7.76943 49.6684 8.03846L42.3069 15.2822C42.0159 15.5685 41.5979 15.6742 41.1995 15.5685L36.8558 14.3616L25.719 25.3201ZM37.436 12.2147L41.1723 13.2525L46.8128 7.70225L43.7972 6.62217C43.475 6.50493 43.2269 6.25701 43.1136 5.93991L42.141 3.15707L36.436 8.77078L37.436 12.2147Z" fill="white"/>
</svg>
