<svg width="48" height="51" viewBox="0 0 48 51" fill="none" xmlns="http://www.w3.org/2000/svg">
<path d="M16.9547 1.08694C16.8288 0.627172 17.1072 0.153604 17.5776 0.0302523C18.0472 -0.0948248 18.5309 0.179483 18.6569 0.640111L19.8128 4.8634C19.9388 5.32317 19.6604 5.79674 19.1899 5.92009C19.1141 5.93993 19.0366 5.95028 18.9617 5.95028C18.5723 5.95028 18.2164 5.69581 18.1115 5.31023L16.9547 1.08694ZM9.61142 10.6307C9.78322 10.799 10.0088 10.8835 10.2343 10.8835C10.4598 10.8835 10.6854 10.799 10.8572 10.6307C11.2017 10.2935 11.2017 9.74831 10.8572 9.41103L7.6996 6.31947C7.35512 5.9822 6.79831 5.9822 6.45383 6.31947C6.10935 6.65675 6.10935 7.20191 6.45383 7.53919L9.61142 10.6307ZM5.42392 17.7334L1.11043 16.6017C0.639962 16.4775 0.157163 16.7518 0.0311764 17.2115C-0.0948099 17.6713 0.183592 18.1449 0.654059 18.2682L4.96755 19.3999C5.0442 19.4198 5.12085 19.4301 5.19573 19.4301C5.58426 19.4301 5.94108 19.1757 6.04592 18.7901C6.17279 18.3295 5.8935 17.8568 5.42392 17.7334ZM4.96755 27.5998L0.653178 28.7316C0.182712 28.8549 -0.0956921 29.3276 0.0302942 29.7882C0.136017 30.1738 0.491069 30.4283 0.880482 30.4283C0.955368 30.4283 1.0329 30.4188 1.10867 30.3981L5.42216 29.2664C5.89262 29.143 6.17103 28.6703 6.04504 28.2097C5.92082 27.7491 5.43625 27.4747 4.96755 27.5998ZM9.61142 36.3682L6.45383 39.4597C6.10935 39.797 6.10935 40.3422 6.45383 40.6794C6.62563 40.8476 6.85118 40.9322 7.07672 40.9322C7.30226 40.9322 7.5278 40.8476 7.6996 40.6794L10.8572 37.5879C11.2017 37.2506 11.2017 36.7054 10.8572 36.3682C10.5127 36.0309 9.9559 36.0309 9.61142 36.3682ZM38.3892 36.3682C38.0447 36.0309 37.4879 36.0309 37.1434 36.3682C36.7989 36.7054 36.7989 37.2506 37.1434 37.5879L40.301 40.6794C40.4728 40.8476 40.6983 40.9322 40.9239 40.9322C41.1494 40.9322 41.3749 40.8476 41.5467 40.6794C41.8912 40.3422 41.8912 39.797 41.5467 39.4597L38.3892 36.3682ZM47.3474 28.7316L43.0339 27.5998C42.5608 27.4756 42.0806 27.7499 41.9547 28.2097C41.8287 28.6695 42.1071 29.143 42.5775 29.2664L46.891 30.3981C46.9677 30.4179 47.0443 30.4283 47.1192 30.4283C47.5077 30.4283 47.8646 30.1738 47.9694 29.7882C48.0963 29.3276 47.817 28.8549 47.3474 28.7316ZM42.8048 19.4293C42.8797 19.4293 42.9573 19.4198 43.033 19.3991L47.3465 18.2674C47.817 18.144 48.0954 17.6713 47.9694 17.2107C47.8434 16.75 47.3589 16.4757 46.8901 16.6008L42.5767 17.7325C42.1062 17.8559 41.8278 18.3286 41.9538 18.7892C42.0595 19.1748 42.4154 19.4293 42.8048 19.4293ZM40.301 6.31947L37.1434 9.41103C36.7989 9.74831 36.7989 10.2935 37.1434 10.6307C37.3152 10.799 37.5407 10.8835 37.7663 10.8835C37.9918 10.8835 38.2174 10.799 38.3892 10.6307L41.5467 7.53919C41.8912 7.20191 41.8912 6.65675 41.5467 6.31947C41.2023 5.9822 40.6455 5.9822 40.301 6.31947ZM28.8107 5.92095C28.8873 5.94079 28.964 5.95114 29.0389 5.95114C29.4274 5.95114 29.7842 5.69667 29.889 5.31109L31.0449 1.0878C31.1709 0.628034 30.8925 0.154466 30.4221 0.0311144C29.9498 -0.0939627 29.4688 0.181208 29.3428 0.640974L28.1869 4.86426C28.0618 5.32403 28.3411 5.7976 28.8107 5.92095ZM38.872 22.8978C39.02 26.4267 37.9222 29.7486 35.6968 32.5054C34.9602 33.4232 34.1338 34.5325 33.3092 35.7109C32.3815 37.0384 31.8907 38.5997 31.8907 40.2266V43.4993C31.8907 43.9754 31.496 44.3619 31.0097 44.3619H30.4705L29.8424 50.0223C29.7939 50.4605 29.4159 50.7917 28.9666 50.7917H19.034C18.5846 50.7917 18.2067 50.4605 18.1582 50.0223L17.5301 44.3619H16.9909C16.5045 44.3619 16.1098 43.9754 16.1098 43.4993V40.2024C16.1098 38.5592 15.5927 36.959 14.6139 35.5763C13.858 34.5075 13.0809 33.4741 12.3021 32.5054C9.79732 29.3811 8.71366 25.4778 9.25108 21.5133C9.60701 18.8858 10.696 16.4188 12.3999 14.3805C15.553 10.61 20.1881 8.65022 25.1016 8.98922C32.5171 9.50764 38.5654 15.6166 38.872 22.8978ZM28.6988 44.3619H19.3018L19.8234 49.0665H28.1755L28.6988 44.3619ZM37.1117 22.9685C36.8403 16.5516 31.5101 11.1664 24.9765 10.7101C20.6339 10.4082 16.5486 12.1429 13.7637 15.4734C12.2668 17.2633 11.31 19.4301 10.9973 21.7402C10.5233 25.2406 11.4783 28.685 13.687 31.4393C14.4861 32.4356 15.2852 33.4966 16.0614 34.5938C17.2446 36.2672 17.8701 38.2064 17.8701 40.2024V42.6367H18.3186H23.1193V32.7892L18.893 29.689C18.5036 29.4035 18.4243 28.8627 18.7159 28.4814C19.0075 28.1001 19.5608 28.0225 19.9493 28.308L24.0003 31.2797L28.0512 28.3089C28.4406 28.0225 28.993 28.101 29.2847 28.4823C29.5763 28.8635 29.497 29.4044 29.1076 29.6899L24.8813 32.7892V42.6367H29.6802H30.1287V40.2266C30.1287 38.2504 30.726 36.3518 31.8546 34.7361C32.7004 33.5268 33.5506 32.3864 34.3127 31.4375C36.2756 29.0067 37.2421 26.0791 37.1117 22.9685ZM24.7888 13.291C24.3034 13.2634 23.8822 13.6153 23.847 14.0898C23.8126 14.5651 24.1774 14.9774 24.6628 15.0119C28.9957 15.3155 32.5312 18.8884 32.711 23.1479C32.7303 23.612 33.1206 23.9743 33.5911 23.9743C33.6034 23.9743 33.6158 23.9743 33.6281 23.9735C34.1144 23.9545 34.4915 23.5525 34.4721 23.0755C34.2554 17.9542 30.0018 13.6559 24.7888 13.291Z" fill="white"/>
</svg>
